<svg width="1227" height="668" xmlns="http://www.w3.org/2000/svg" xmlns:xlink="http://www.w3.org/1999/xlink" overflow="hidden"><defs><clipPath id="clip0"><rect x="31" y="23" width="1227" height="668"/></clipPath></defs><g clip-path="url(#clip0)" transform="translate(-31 -23)"><path d="M33 71.8474C33 45.9743 53.9743 25 79.8473 25L1208.15 25C1234.03 25 1255 45.9743 1255 71.8474L1255 641.153C1255 667.026 1234.03 688 1208.15 688L79.8473 688C53.9743 688 33 667.026 33 641.153Z" stroke="#000000" stroke-width="4" stroke-miterlimit="8" fill="none" fill-rule="evenodd"/><text font-family="Times New Roman,Times New Roman_MSFontService,sans-serif" font-weight="400" font-size="37" transform="translate(145.778 86)">Secure Computation</text><text font-family="Times New Roman,Times New Roman_MSFontService,sans-serif" font-weight="400" font-size="37" transform="translate(459.938 86)">Toolkit</text><text font-family="Times New Roman,Times New Roman_MSFontService,sans-serif" font-weight="400" font-size="37" transform="translate(576.498 86)">Based on Homomorphic Encryption</text><text font-family="Times New Roman,Times New Roman_MSFontService,sans-serif" font-weight="400" font-size="24" transform="translate(514.342 594)">Homomorphic Encryption</text><rect x="74.5001" y="562.5" width="1143" height="112" stroke="#000000" stroke-width="3" stroke-miterlimit="8" fill="none"/><rect x="74.5001" y="241.5" width="1143" height="309" stroke="#000000" stroke-width="3" stroke-miterlimit="8" fill="none"/><path d="M549 619.259C549 612.489 554.489 607 561.259 607L848.741 607C855.511 607 861 612.489 861 619.259L861 651.741C861 658.511 855.511 664 848.741 664L561.259 664C554.489 664 549 658.511 549 651.741Z" stroke="#000000" stroke-width="2" stroke-miterlimit="8" fill="none" fill-rule="evenodd"/><text font-family="Times New Roman,Times New Roman_MSFontService,sans-serif" font-weight="400" font-size="24" transform="translate(589.894 644)">Homomorphic Addition</text><path d="M112 618.259C112 611.489 117.489 606 124.259 606L285.741 606C292.511 606 298 611.489 298 618.259L298 650.741C298 657.511 292.511 663 285.741 663L124.259 663C117.489 663 112 657.511 112 650.741Z" stroke="#000000" stroke-width="2" stroke-miterlimit="8" fill="none" fill-rule="evenodd"/><text font-family="Times New Roman,Times New Roman_MSFontService,sans-serif" font-weight="400" font-size="24" transform="translate(151.44 643)">Encryption</text><text fill="#333333" font-family="Times New Roman,Times New Roman_MSFontService,sans-serif" font-weight="400" font-size="24" transform="translate(571.46 277)">Basic</text><text fill="#333333" font-family="Times New Roman,Times New Roman_MSFontService,sans-serif" font-weight="400" font-size="24" transform="translate(630.794 277)">Protocols</text><path d="M317 372.259C317 365.489 322.489 360 329.259 360L417.741 360C424.511 360 430 365.489 430 372.259L430 404.741C430 411.511 424.511 417 417.741 417L329.259 417C322.489 417 317 411.511 317 404.741Z" stroke="#000000" stroke-width="2" stroke-miterlimit="8" fill="none" fill-rule="evenodd"/><text font-family="Times New Roman,Times New Roman_MSFontService,sans-serif" font-weight="400" font-size="24" transform="translate(343.455 397)">SMIN</text><path d="M317 443.044C317 436.392 322.392 431 329.044 431L418.956 431C425.608 431 431 436.392 431 443.044L431 474.956C431 481.608 425.608 487 418.956 487L329.044 487C322.392 487 317 481.608 317 474.956Z" stroke="#000000" stroke-width="2" stroke-miterlimit="8" fill="none" fill-rule="evenodd"/><text font-family="Times New Roman,Times New Roman_MSFontService,sans-serif" font-weight="400" font-size="24" transform="translate(339.225 467)">SMAX</text><path d="M700 443.044C700 436.392 705.392 431 712.044 431L801.956 431C808.608 431 814 436.392 814 443.044L814 474.956C814 481.608 808.608 487 801.956 487L712.044 487C705.392 487 700 481.608 700 474.956Z" stroke="#000000" stroke-width="2" stroke-miterlimit="8" fill="none" fill-rule="evenodd"/><text font-family="Times New Roman,Times New Roman_MSFontService,sans-serif" font-weight="400" font-size="24" transform="translate(725.796 467)">SNEQ</text><path d="M1046 440.259C1046 433.489 1051.49 428 1058.26 428L1147.74 428C1154.51 428 1160 433.489 1160 440.259L1160 472.741C1160 479.511 1154.51 485 1147.74 485L1058.26 485C1051.49 485 1046 479.511 1046 472.741Z" stroke="#000000" stroke-width="2" stroke-miterlimit="8" fill="none" fill-rule="evenodd"/><text font-family="Times New Roman,Times New Roman_MSFontService,sans-serif" font-weight="400" font-size="24" transform="translate(1079.83 465)">SOR</text><path d="M908 372.044C908 365.392 913.392 360 920.044 360L1008.96 360C1015.61 360 1021 365.392 1021 372.044L1021 403.956C1021 410.608 1015.61 416 1008.96 416L920.044 416C913.392 416 908 410.608 908 403.956Z" stroke="#000000" stroke-width="2" stroke-miterlimit="8" fill="none" fill-rule="evenodd"/><text font-family="Times New Roman,Times New Roman_MSFontService,sans-serif" font-weight="400" font-size="24" transform="translate(932.962 397)">SNOT</text><path d="M910 442.044C910 435.392 915.392 430 922.044 430L1010.96 430C1017.61 430 1023 435.392 1023 442.044L1023 473.956C1023 480.608 1017.61 486 1010.96 486L922.044 486C915.392 486 910 480.608 910 473.956Z" stroke="#000000" stroke-width="2" stroke-miterlimit="8" fill="none" fill-rule="evenodd"/><text font-family="Times New Roman,Times New Roman_MSFontService,sans-serif" font-weight="400" font-size="24" transform="translate(933.722 467)">SAND</text><path d="M561 372.259C561 365.489 566.489 360 573.259 360L661.741 360C668.511 360 674 365.489 674 372.259L674 404.741C674 411.511 668.511 417 661.741 417L573.259 417C566.489 417 561 411.511 561 404.741Z" stroke="#000000" stroke-width="2" stroke-miterlimit="8" fill="none" fill-rule="evenodd"/><text font-family="Times New Roman,Times New Roman_MSFontService,sans-serif" font-weight="400" font-size="24" transform="translate(594.7 397)">SEQ</text><path d="M700 373.259C700 366.489 705.489 361 712.259 361L801.741 361C808.511 361 814 366.489 814 373.259L814 405.741C814 412.511 808.511 418 801.741 418L712.259 418C705.489 418 700 412.511 700 405.741Z" stroke="#000000" stroke-width="2" stroke-miterlimit="8" fill="none" fill-rule="evenodd"/><text font-family="Times New Roman,Times New Roman_MSFontService,sans-serif" font-weight="400" font-size="24" transform="translate(722.462 398)">SLESS</text><path d="M560 443.044C560 436.392 565.392 431 572.044 431L660.956 431C667.608 431 673 436.392 673 443.044L673 474.956C673 481.608 667.608 487 660.956 487L572.044 487C565.392 487 560 481.608 560 474.956Z" stroke="#000000" stroke-width="2" stroke-miterlimit="8" fill="none" fill-rule="evenodd"/><text font-family="Times New Roman,Times New Roman_MSFontService,sans-serif" font-weight="400" font-size="24" transform="translate(586.256 468)">SLEQ</text><path d="M1047 373.259C1047 366.489 1052.49 361 1059.26 361L1147.74 361C1154.51 361 1160 366.489 1160 373.259L1160 405.741C1160 412.511 1154.51 418 1147.74 418L1059.26 418C1052.49 418 1047 412.511 1047 405.741Z" stroke="#000000" stroke-width="2" stroke-miterlimit="8" fill="none" fill-rule="evenodd"/><text font-family="Times New Roman,Times New Roman_MSFontService,sans-serif" font-weight="400" font-size="24" transform="translate(1080.26 398)">SBD</text><rect x="74.5001" y="105.5" width="1142" height="119" stroke="#000000" stroke-width="3" stroke-miterlimit="8" fill="none"/><text font-family="Times New Roman,Times New Roman_MSFontService,sans-serif" font-weight="400" font-size="24" transform="translate(547.833 138)">Advanced</text><text fill="#333333" font-family="Times New Roman,Times New Roman_MSFontService,sans-serif" font-weight="400" font-size="24" transform="translate(651.166 138)">Protocols</text><path d="M179 372.259C179 365.489 184.489 360 191.259 360L280.741 360C287.511 360 293 365.489 293 372.259L293 404.741C293 411.511 287.511 417 280.741 417L191.259 417C184.489 417 179 411.511 179 404.741Z" stroke="#000000" stroke-width="2" stroke-miterlimit="8" fill="none" fill-rule="evenodd"/><text font-family="Times New Roman,Times New Roman_MSFontService,sans-serif" font-weight="400" font-size="24" transform="translate(212.849 397)">SDC</text><path d="M181 443.044C181 436.392 186.392 431 193.044 431L282.956 431C289.608 431 295 436.392 295 443.044L295 474.956C295 481.608 289.608 487 282.956 487L193.044 487C186.392 487 181 481.608 181 474.956Z" stroke="#000000" stroke-width="2" stroke-miterlimit="8" fill="none" fill-rule="evenodd"/><text font-family="Times New Roman,Times New Roman_MSFontService,sans-serif" font-weight="400" font-size="24" transform="translate(220.765 467)">SM</text><path d="M512 170.044C512 163.392 517.392 158 524.044 158L613.956 158C620.608 158 626 163.392 626 170.044L626 201.956C626 208.608 620.608 214 613.956 214L524.044 214C517.392 214 512 208.608 512 201.956Z" stroke="#000000" stroke-width="2" stroke-miterlimit="8" fill="none" fill-rule="evenodd"/><text font-family="Times New Roman,Times New Roman_MSFontService,sans-serif" font-weight="400" font-size="24" transform="translate(539.556 195)">SSED</text><path d="M348 168.044C348 161.392 353.392 156 360.044 156L449.956 156C456.608 156 462 161.392 462 168.044L462 199.956C462 206.608 456.608 212 449.956 212L360.044 212C353.392 212 348 206.608 348 199.956Z" stroke="#000000" stroke-width="2" stroke-miterlimit="8" fill="none" fill-rule="evenodd"/><text font-family="Times New Roman,Times New Roman_MSFontService,sans-serif" font-weight="400" font-size="24" transform="translate(368.932 193)">SSPLD</text><path d="M676 167.259C676 160.489 681.489 155 688.259 155L776.741 155C783.511 155 789 160.489 789 167.259L789 199.741C789 206.511 783.511 212 776.741 212L688.259 212C681.489 212 676 206.511 676 199.741Z" stroke="#000000" stroke-width="2" stroke-miterlimit="8" fill="none" fill-rule="evenodd"/><text font-family="Times New Roman,Times New Roman_MSFontService,sans-serif" font-weight="400" font-size="24" transform="translate(708.462 192)">SGD</text><path d="M839 167.259C839 160.489 844.489 155 851.259 155L940.741 155C947.511 155 953 160.489 953 167.259L953 199.741C953 206.511 947.511 212 940.741 212L851.259 212C844.489 212 839 206.511 839 199.741Z" stroke="#000000" stroke-width="2" stroke-miterlimit="8" fill="none" fill-rule="evenodd"/><text font-family="Times New Roman,Times New Roman_MSFontService,sans-serif" font-weight="400" font-size="24" transform="translate(872.036 192)">SGD</text><text fill="#333333" font-family="Times New Roman,Times New Roman_MSFontService,sans-serif" font-weight="400" font-size="24" transform="translate(100.636 333)">Secure Arithmetic Computation</text><text fill="#333333" font-family="Times New Roman,Times New Roman_MSFontService,sans-serif" font-weight="400" font-size="24" transform="translate(411.976 333)">Protocols</text><path d="M88.5001 327.01C88.5001 310.712 101.712 297.5 118.01 297.5L483.99 297.5C500.288 297.5 513.5 310.712 513.5 327.01L513.5 505.99C513.5 522.288 500.288 535.5 483.99 535.5L118.01 535.5C101.712 535.5 88.5001 522.288 88.5001 505.99Z" stroke="#000000" stroke-width="4.66667" stroke-miterlimit="8" stroke-dasharray="18.6667 14" fill="none" fill-rule="evenodd"/><path d="M524.5 327.01C524.5 310.712 537.712 297.5 554.01 297.5L816.99 297.5C833.288 297.5 846.5 310.712 846.5 327.01L846.5 505.99C846.5 522.288 833.288 535.5 816.99 535.5L554.01 535.5C537.712 535.5 524.5 522.288 524.5 505.99Z" stroke="#000000" stroke-width="4.66667" stroke-miterlimit="8" stroke-dasharray="18.6667 14" fill="none" fill-rule="evenodd"/><text fill="#333333" font-family="Times New Roman,Times New Roman_MSFontService,sans-serif" font-weight="400" font-size="24" transform="translate(544.033 335)">Secure Comparison</text><text fill="#333333" font-family="Times New Roman,Times New Roman_MSFontService,sans-serif" font-weight="400" font-size="24" transform="translate(738.7 335)">Protocols</text><path d="M859.5 327.01C859.5 310.712 872.712 297.5 889.01 297.5L1174.99 297.5C1191.29 297.5 1204.5 310.712 1204.5 327.01L1204.5 505.991C1204.5 522.288 1191.29 535.5 1174.99 535.5L889.01 535.5C872.712 535.5 859.5 522.288 859.5 505.991Z" stroke="#000000" stroke-width="4.66667" stroke-miterlimit="8" stroke-dasharray="18.6667 14" fill="none" fill-rule="evenodd"/><text fill="#333333" font-family="Times New Roman,Times New Roman_MSFontService,sans-serif" font-weight="400" font-size="24" transform="translate(867.747 335)">Secure Bit Computation Protocols</text><text fill="#333333" font-family="Times New Roman,Times New Roman_MSFontService,sans-serif" font-weight="400" font-size="37" transform="translate(251.941 516)">…….</text><text fill="#333333" font-family="Times New Roman,Times New Roman_MSFontService,sans-serif" font-weight="400" font-size="37" transform="translate(640.227 516)">…….</text><text fill="#333333" font-family="Times New Roman,Times New Roman_MSFontService,sans-serif" font-weight="400" font-size="37" transform="translate(988.992 514)">…….</text><path d="M326 618.259C326 611.489 331.489 606 338.259 606L504.741 606C511.511 606 517 611.489 517 618.259L517 650.741C517 657.511 511.511 663 504.741 663L338.259 663C331.489 663 326 657.511 326 650.741Z" stroke="#000000" stroke-width="2" stroke-miterlimit="8" fill="none" fill-rule="evenodd"/><text font-family="Times New Roman,Times New Roman_MSFontService,sans-serif" font-weight="400" font-size="24" transform="translate(367.617 643)">Decryption</text><path d="M886 619.474C886 612.585 891.585 607 898.474 607L1185.53 607C1192.42 607 1198 612.585 1198 619.474L1198 652.526C1198 659.415 1192.42 665 1185.53 665L898.474 665C891.585 665 886 659.415 886 652.526Z" stroke="#000000" stroke-width="2" stroke-miterlimit="8" fill="none" fill-rule="evenodd"/><text font-family="Times New Roman,Times New Roman_MSFontService,sans-serif" font-weight="400" font-size="24" transform="translate(900.071 645)">Homomorphic Multiplication</text></g></svg>