<svg width="1227" height="604" xmlns="http://www.w3.org/2000/svg" xmlns:xlink="http://www.w3.org/1999/xlink" overflow="hidden"><defs><clipPath id="clip0"><rect x="42" y="87" width="1227" height="604"/></clipPath></defs><g clip-path="url(#clip0)" transform="translate(-42 -87)"><path d="M44 132.254C44 108.918 62.9178 90 86.2542 90L1223.75 90C1247.08 90 1266 108.918 1266 132.254L1266 645.746C1266 669.082 1247.08 688 1223.75 688L86.2542 688C62.9178 688 44 669.082 44 645.746Z" stroke="#000000" stroke-width="4" stroke-miterlimit="8" fill="none" fill-rule="evenodd"/><text font-family="Times New Roman,Times New Roman_MSFontService,sans-serif" font-weight="400" font-size="37" transform="translate(599.597 143)">For test</text><text fill="#333333" font-family="Times New Roman,Times New Roman_MSFontService,sans-serif" font-weight="400" font-size="24" transform="translate(448.579 568)">Foundation layer</text><text fill="#333333" font-family="Times New Roman,Times New Roman_MSFontService,sans-serif" font-weight="400" font-size="24" transform="translate(617.912 568)">(</text><text fill="#333333" font-family="Times New Roman,Times New Roman_MSFontService,sans-serif" font-weight="400" font-size="24" transform="translate(625.912 568)">Paillier cryptosystem</text><text fill="#333333" font-family="Times New Roman,Times New Roman_MSFontService,sans-serif" font-weight="400" font-size="24" transform="translate(829.245 568)">)</text><rect x="118.5" y="530.5" width="1046" height="121" stroke="#000000" stroke-width="3" stroke-miterlimit="8" fill="none"/><rect x="84.5001" y="300.5" width="1112" height="363" stroke="#000000" stroke-width="3" stroke-miterlimit="8" fill="none"/><path d="M901 600.259C901 593.489 906.489 588 913.259 588L1111.74 588C1118.51 588 1124 593.489 1124 600.259L1124 632.741C1124 639.511 1118.51 645 1111.74 645L913.259 645C906.489 645 901 639.511 901 632.741Z" stroke="#000000" stroke-width="2" stroke-miterlimit="8" fill="none" fill-rule="evenodd"/><text font-family="Times New Roman,Times New Roman_MSFontService,sans-serif" font-weight="400" font-size="24" transform="translate(942.117 611)">Homomorphic</text><text font-family="Times New Roman,Times New Roman_MSFontService,sans-serif" font-weight="400" font-size="24" transform="translate(972.783 640)">addition</text><path d="M133 593.474C133 586.585 138.585 581 145.474 581L343.526 581C350.415 581 356 586.585 356 593.474L356 626.526C356 633.415 350.415 639 343.526 639L145.474 639C138.585 639 133 633.415 133 626.526Z" stroke="#000000" stroke-width="2" stroke-miterlimit="8" fill="none" fill-rule="evenodd"/><text font-family="Times New Roman,Times New Roman_MSFontService,sans-serif" font-weight="400" font-size="24" transform="translate(174.068 604)">Homomorphic</text><text font-family="Times New Roman,Times New Roman_MSFontService,sans-serif" font-weight="400" font-size="24" transform="translate(175.401 633)">Multiplication</text><text fill="#333333" font-family="Times New Roman,Times New Roman_MSFontService,sans-serif" font-weight="400" font-size="24" transform="translate(503.885 329)">Basic</text><text fill="#333333" font-family="Times New Roman,Times New Roman_MSFontService,sans-serif" font-weight="400" font-size="24" transform="translate(563.219 329)">protocol</text><text fill="#333333" font-family="Times New Roman,Times New Roman_MSFontService,sans-serif" font-weight="400" font-size="24" transform="translate(649.219 329)">layer</text><path d="M666 382.259C666 375.489 671.489 370 678.259 370L766.741 370C773.511 370 779 375.489 779 382.259L779 414.741C779 421.511 773.511 427 766.741 427L678.259 427C671.489 427 666 421.511 666 414.741Z" stroke="#000000" stroke-width="2" stroke-miterlimit="8" fill="none" fill-rule="evenodd"/><text font-family="Times New Roman,Times New Roman_MSFontService,sans-serif" font-weight="400" font-size="24" transform="translate(692.324 407)">SMIN</text><path d="M667 454.259C667 447.489 672.489 442 679.259 442L767.741 442C774.511 442 780 447.489 780 454.259L780 486.741C780 493.511 774.511 499 767.741 499L679.259 499C672.489 499 667 493.511 667 486.741Z" stroke="#000000" stroke-width="2" stroke-miterlimit="8" fill="none" fill-rule="evenodd"/><text font-family="Times New Roman,Times New Roman_MSFontService,sans-serif" font-weight="400" font-size="24" transform="translate(688.746 479)">SMAX</text><path d="M113 383.259C113 376.489 118.489 371 125.259 371L213.741 371C220.511 371 226 376.489 226 383.259L226 415.741C226 422.511 220.511 428 213.741 428L125.259 428C118.489 428 113 422.511 113 415.741Z" stroke="#000000" stroke-width="2" stroke-miterlimit="8" fill="none" fill-rule="evenodd"/><text font-family="Times New Roman,Times New Roman_MSFontService,sans-serif" font-weight="400" font-size="24" transform="translate(155.881 408)">SP</text><path d="M115 454.259C115 447.489 120.489 442 127.259 442L216.741 442C223.511 442 229 447.489 229 454.259L229 486.741C229 493.511 223.511 499 216.741 499L127.259 499C120.489 499 115 493.511 115 486.741Z" stroke="#000000" stroke-width="2" stroke-miterlimit="8" fill="none" fill-rule="evenodd"/><text font-family="Times New Roman,Times New Roman_MSFontService,sans-serif" font-weight="400" font-size="24" transform="translate(139.266 479)">SAND</text><path d="M1071 380.259C1071 373.489 1076.49 368 1083.26 368L1172.74 368C1179.51 368 1185 373.489 1185 380.259L1185 412.741C1185 419.511 1179.51 425 1172.74 425L1083.26 425C1076.49 425 1071 419.511 1071 412.741Z" stroke="#000000" stroke-width="2" stroke-miterlimit="8" fill="none" fill-rule="evenodd"/><text font-family="Times New Roman,Times New Roman_MSFontService,sans-serif" font-weight="400" font-size="24" transform="translate(1104.72 405)">SOR</text><path d="M802 381.259C802 374.489 807.489 369 814.259 369L903.741 369C910.511 369 916 374.489 916 381.259L916 413.741C916 420.511 910.511 426 903.741 426L814.259 426C807.489 426 802 420.511 802 413.741Z" stroke="#000000" stroke-width="2" stroke-miterlimit="8" fill="none" fill-rule="evenodd"/><text font-family="Times New Roman,Times New Roman_MSFontService,sans-serif" font-weight="400" font-size="24" transform="translate(827.547 406)">SNOT</text><path d="M803 453.044C803 446.392 808.392 441 815.044 441L904.956 441C911.608 441 917 446.392 917 453.044L917 484.956C917 491.608 911.608 497 904.956 497L815.044 497C808.392 497 803 491.608 803 484.956Z" stroke="#000000" stroke-width="2" stroke-miterlimit="8" fill="none" fill-rule="evenodd"/><text font-family="Times New Roman,Times New Roman_MSFontService,sans-serif" font-weight="400" font-size="24" transform="translate(818.631 478)">SNAND</text><path d="M250 381.259C250 374.489 255.489 369 262.259 369L350.741 369C357.511 369 363 374.489 363 381.259L363 413.741C363 420.511 357.511 426 350.741 426L262.259 426C255.489 426 250 420.511 250 413.741Z" stroke="#000000" stroke-width="2" stroke-miterlimit="8" fill="none" fill-rule="evenodd"/><text font-family="Times New Roman,Times New Roman_MSFontService,sans-serif" font-weight="400" font-size="24" transform="translate(283.861 406)">SEQ</text><path d="M251 453.259C251 446.489 256.489 441 263.259 441L351.741 441C358.511 441 364 446.489 364 453.259L364 485.741C364 492.511 358.511 498 351.741 498L263.259 498C256.489 498 251 492.511 251 485.741Z" stroke="#000000" stroke-width="2" stroke-miterlimit="8" fill="none" fill-rule="evenodd"/><text font-family="Times New Roman,Times New Roman_MSFontService,sans-serif" font-weight="400" font-size="24" transform="translate(285.08 478)">SNE</text><path d="M1071 453.044C1071 446.392 1076.39 441 1083.04 441L1172.96 441C1179.61 441 1185 446.392 1185 453.044L1185 484.956C1185 491.608 1179.61 497 1172.96 497L1083.04 497C1076.39 497 1071 491.608 1071 484.956Z" stroke="#000000" stroke-width="2" stroke-miterlimit="8" fill="none" fill-rule="evenodd"/><text font-family="Times New Roman,Times New Roman_MSFontService,sans-serif" font-weight="400" font-size="24" transform="translate(1112.72 478)">SG</text><path d="M941 451.259C941 444.489 946.489 439 953.259 439L1042.74 439C1049.51 439 1055 444.489 1055 451.259L1055 483.741C1055 490.511 1049.51 496 1042.74 496L953.259 496C946.489 496 941 490.511 941 483.741Z" stroke="#000000" stroke-width="2" stroke-miterlimit="8" fill="none" fill-rule="evenodd"/><text font-family="Times New Roman,Times New Roman_MSFontService,sans-serif" font-weight="400" font-size="24" transform="translate(975.465 476)">SGE</text><path d="M397 381.259C397 374.489 402.489 369 409.259 369L497.741 369C504.511 369 510 374.489 510 381.259L510 413.741C510 420.511 504.511 426 497.741 426L409.259 426C402.489 426 397 420.511 397 413.741Z" stroke="#000000" stroke-width="2" stroke-miterlimit="8" fill="none" fill-rule="evenodd"/><text font-family="Times New Roman,Times New Roman_MSFontService,sans-serif" font-weight="400" font-size="24" transform="translate(418.773 406)">SLESS</text><path d="M392 454.259C392 447.489 397.489 442 404.259 442L493.741 442C500.511 442 506 447.489 506 454.259L506 486.741C506 493.511 500.511 499 493.741 499L404.259 499C397.489 499 392 493.511 392 486.741Z" stroke="#000000" stroke-width="2" stroke-miterlimit="8" fill="none" fill-rule="evenodd"/><text font-family="Times New Roman,Times New Roman_MSFontService,sans-serif" font-weight="400" font-size="24" transform="translate(418.874 479)">SLEQ</text><path d="M939 380.044C939 373.392 944.392 368 951.044 368L1039.96 368C1046.61 368 1052 373.392 1052 380.044L1052 411.956C1052 418.608 1046.61 424 1039.96 424L951.044 424C944.392 424 939 418.608 939 411.956Z" stroke="#000000" stroke-width="2" stroke-miterlimit="8" fill="none" fill-rule="evenodd"/><text font-family="Times New Roman,Times New Roman_MSFontService,sans-serif" font-weight="400" font-size="24" transform="translate(972.104 405)">SBD</text><rect x="66.5001" y="169.5" width="1158" height="504" stroke="#000000" stroke-width="3" stroke-miterlimit="8" fill="none"/><text font-family="Times New Roman,Times New Roman_MSFontService,sans-serif" font-weight="400" font-size="24" transform="translate(518.333 198)">Advanced</text><text fill="#333333" font-family="Times New Roman,Times New Roman_MSFontService,sans-serif" font-weight="400" font-size="24" transform="translate(621.667 198)">protocol</text><text font-family="Times New Roman,Times New Roman_MSFontService,sans-serif" font-weight="400" font-size="24" transform="translate(713.667 198)">layer</text><path d="M528 455.044C528 448.392 533.392 443 540.044 443L628.956 443C635.608 443 641 448.392 641 455.044L641 486.956C641 493.608 635.608 499 628.956 499L540.044 499C533.392 499 528 493.608 528 486.956Z" stroke="#000000" stroke-width="2" stroke-miterlimit="8" fill="none" fill-rule="evenodd"/><text font-family="Times New Roman,Times New Roman_MSFontService,sans-serif" font-weight="400" font-size="24" transform="translate(561.355 479)">SDC</text><path d="M533 383.259C533 376.489 538.489 371 545.259 371L634.741 371C641.511 371 647 376.489 647 383.259L647 415.741C647 422.511 641.511 428 634.741 428L545.259 428C538.489 428 533 422.511 533 415.741Z" stroke="#000000" stroke-width="2" stroke-miterlimit="8" fill="none" fill-rule="evenodd"/><text font-family="Times New Roman,Times New Roman_MSFontService,sans-serif" font-weight="400" font-size="24" transform="translate(572.663 408)">SM</text><path d="M425 228.044C425 221.392 430.392 216 437.044 216L525.956 216C532.608 216 538 221.392 538 228.044L538 259.956C538 266.608 532.608 272 525.956 272L437.044 272C430.392 272 425 266.608 425 259.956Z" stroke="#000000" stroke-width="2" stroke-miterlimit="8" fill="none" fill-rule="evenodd"/><text font-family="Times New Roman,Times New Roman_MSFontService,sans-serif" font-weight="400" font-size="24" transform="translate(451.872 253)">SSED</text><path d="M255 228.044C255 221.392 260.392 216 267.044 216L356.956 216C363.608 216 369 221.392 369 228.044L369 259.956C369 266.608 363.608 272 356.956 272L267.044 272C260.392 272 255 266.608 255 259.956Z" stroke="#000000" stroke-width="2" stroke-miterlimit="8" fill="none" fill-rule="evenodd"/><text font-family="Times New Roman,Times New Roman_MSFontService,sans-serif" font-weight="400" font-size="24" transform="translate(276.12 253)">SSPLD</text><path d="M588 228.044C588 221.392 593.392 216 600.044 216L688.956 216C695.608 216 701 221.392 701 228.044L701 259.956C701 266.608 695.608 272 688.956 272L600.044 272C593.392 272 588 266.608 588 259.956Z" stroke="#000000" stroke-width="2" stroke-miterlimit="8" fill="none" fill-rule="evenodd"/><text font-family="Times New Roman,Times New Roman_MSFontService,sans-serif" font-weight="400" font-size="24" transform="translate(620.571 253)">SGD</text><path d="M754 230.259C754 223.489 759.489 218 766.259 218L854.741 218C861.511 218 867 223.489 867 230.259L867 262.741C867 269.511 861.511 275 854.741 275L766.259 275C759.489 275 754 269.511 754 262.741Z" stroke="#000000" stroke-width="2" stroke-miterlimit="8" fill="none" fill-rule="evenodd"/><text font-family="Times New Roman,Times New Roman_MSFontService,sans-serif" font-weight="400" font-size="24" transform="translate(788.636 255)">SSD</text><path d="M917 228.259C917 221.489 922.489 216 929.259 216L1018.74 216C1025.51 216 1031 221.489 1031 228.259L1031 260.741C1031 267.511 1025.51 273 1018.74 273L929.259 273C922.489 273 917 267.511 917 260.741Z" stroke="#000000" stroke-width="2" stroke-miterlimit="8" fill="none" fill-rule="evenodd"/><text font-family="Times New Roman,Times New Roman_MSFontService,sans-serif" font-weight="400" font-size="24" transform="translate(958.669 253)">SD</text></g></svg>